# xmcd
#
# Track frame offsets: 
#        150
#        16173
#        35354
#        52464
#        64587
#        86666
#        100871
#        119785
#        139493
#        156691
#        176749
#
# Disc length: 2589 seconds
#
# Revision: 0
# Processed by: cddbd v1.5.2PL0 Copyright (c) Steve Scherf et al.
# Submitted via: ExactAudioCopyFreeDBPlugin 1.0
#
DISCID=a50a1b0b
DTITLE=Jimmy Reiter - What You Need
DYEAR=2019
DGENRE=Blues
TTITLE0=One Mint Julep
TTITLE1=What You Need
TTITLE2=Hooked
TTITLE3=I Shouldn't But I Do
TTITLE4=What's In It For Me?
TTITLE5=Lucy Mae Blues
TTITLE6=Who's Minding The Store?
TTITLE7=Give It To Me Straight
TTITLE8=It Is What It Is
TTITLE9=No Turnin' Back
TTITLE10=Jim-Pan-Zee
EXTD=
EXTT0=
EXTT1=
EXTT2=
EXTT3=
EXTT4=
EXTT5=
EXTT6=
EXTT7=
EXTT8=
EXTT9=
EXTT10=
PLAYORDER=
